# xmcd
#
# Track frame offsets:
#	150
#	17595
#	32417
#	46121
#	63309
#	79360
#	89829
#	110400
#	125039
#	138603
#	157589
#	179856
#	197451
#	208052
#
# Disc length: 3180 seconds
# Revision: 0
# Processed by: cddbd v1.5.2PL0 Copyright (c) Steve Scherf et al.
# Submitted via: dBpowerAMP V12.0
#
DISCID=c10c6a0e
DTITLE=Mike Mettalia and Midnight Shift - Midnight Sun
DYEAR=2012
DGENRE=Blues Harmonica
TTITLE0=Work Don't Work
TTITLE1=Calabash
TTITLE2=Blues Come Around
TTITLE3=Midnight Sun
TTITLE4=Magic Touch
TTITLE5=Mama's Little Baby
TTITLE6=The 796
TTITLE7=Leave Married Women
TTITLE8=Sun Record Sleeve
TTITLE9=Love Reaction
TTITLE10=Built For Speed
TTITLE11=Heartsick
TTITLE12=Cheat You Fair
TTITLE13=What Have I Done
EXTD=
EXTT0=
EXTT1=
EXTT2=
EXTT3=
EXTT4=
EXTT5=
EXTT6=
EXTT7=
EXTT8=
EXTT9=
EXTT10=
EXTT11=
EXTT12=
EXTT13=
PLAYORDER=
